<svg width="46" height="46" viewBox="0 0 46 46" fill="none" xmlns="http://www.w3.org/2000/svg">
<g clip-path="url(#clip0_13_865)">
<path d="M23 0C10.304 0 0 10.304 0 23C0 35.696 10.304 46 23 46C35.696 46 46 35.696 46 23C46 10.304 35.696 0 23 0ZM23 6.9C26.818 6.9 29.9 9.982 29.9 13.8C29.9 17.618 26.818 20.7 23 20.7C19.182 20.7 16.1 17.618 16.1 13.8C16.1 9.982 19.182 6.9 23 6.9ZM23 39.56C17.25 39.56 12.167 36.616 9.2 32.154C9.269 27.577 18.4 25.07 23 25.07C27.577 25.07 36.731 27.577 36.8 32.154C33.833 36.616 28.75 39.56 23 39.56Z" fill="black"/>
</g>
<defs>
<clipPath id="clip0_13_865">
<rect width="46" height="46" fill="white"/>
</clipPath>
</defs>
</svg>
