<svg width="164" height="164" viewBox="0 0 164 164" fill="none" xmlns="http://www.w3.org/2000/svg">
<rect width="164" height="164" rx="9" fill="#F1F1F1"/>
<path d="M25.9709 94.7822C18.9121 96.8527 8.02989 104.902 1.93738 111.678C0.62218 113.141 0 115.07 0 117.037V155C0 159.971 4.02944 164 9 164H155C159.971 164 164 159.971 164 155V117.037C164 115.07 163.378 113.141 162.063 111.678C155.97 104.902 145.088 96.8527 138.029 94.7822C136.304 94.2765 134.307 93.9848 132.151 93.7788C130.63 93.6336 129.03 93.531 127.391 93.4258C120.383 92.9764 112.683 92.4825 107.476 88.4108C102.6 84.5975 101.22 78.7634 101.118 74.5099C101.063 72.1775 102.486 70.1834 104.11 68.5082C106.921 65.6077 109.043 61.8578 110.616 57.9434C111.383 56.0349 112.698 54.3913 114.147 52.931C115.629 51.4367 117.157 49.3567 117.66 46.9927C117.868 46.019 117.859 45.1277 117.708 44.327C117.068 40.9398 114.808 37.6125 114.841 34.1655C115.162 0 91.6773 0 82 0C72.3227 0 48.8384 0 49.1595 34.1655C49.1919 37.6125 46.9316 40.9398 46.2921 44.327C46.1409 45.1277 46.132 46.019 46.3396 46.9927C46.8427 49.3567 48.3708 51.4367 49.8533 52.931C51.3019 54.3913 52.6165 56.0349 53.3838 57.9434C54.9574 61.8578 57.0789 65.6077 59.89 68.5082C61.5137 70.1834 62.9373 72.1775 62.8816 74.5099C62.7801 78.7634 61.4001 84.5975 56.5239 88.4108C51.3173 92.4825 43.617 92.9764 36.6085 93.4258C32.6495 93.6799 28.913 93.9197 25.9709 94.7822Z" fill="#D9D9D9"/>
</svg>
