<svg width="161" height="43" viewBox="0 0 161 43" fill="none" xmlns="http://www.w3.org/2000/svg">
<path d="M0 29.3333C0 30.8061 1.19391 32 2.66667 32H13.3333C14.8061 32 16 30.8061 16 29.3333V29.3333C16 27.8606 14.8061 26.6667 13.3333 26.6667H2.66667C1.19391 26.6667 0 27.8606 0 29.3333V29.3333ZM2.66667 0C1.19391 0 0 1.19391 0 2.66667V2.66667C0 4.13943 1.19391 5.33333 2.66667 5.33333H45.3333C46.8061 5.33333 48 4.13943 48 2.66667V2.66667C48 1.19391 46.8061 0 45.3333 0H2.66667ZM0 16C0 17.4728 1.19391 18.6667 2.66667 18.6667H29.3333C30.8061 18.6667 32 17.4728 32 16V16C32 14.5272 30.8061 13.3333 29.3333 13.3333H2.66667C1.19391 13.3333 0 14.5272 0 16V16Z" fill="black"/>
<path d="M35.8084 32V9.664H45.8564C46.8804 9.664 47.7977 9.83467 48.6084 10.176C49.4404 10.496 50.1444 10.9653 50.7204 11.584C51.2964 12.1813 51.7337 12.9067 52.0324 13.76C52.331 14.6133 52.4804 15.552 52.4804 16.576C52.4804 17.6213 52.331 18.5707 52.0324 19.424C51.7337 20.256 51.2964 20.9813 50.7204 21.6C50.1444 22.1973 49.4404 22.6667 48.6084 23.008C47.7977 23.328 46.8804 23.488 45.8564 23.488H40.0324V32H35.8084ZM40.0324 19.84H45.4724C46.283 19.84 46.923 19.6267 47.3924 19.2C47.8617 18.752 48.0964 18.1227 48.0964 17.312V15.84C48.0964 15.0293 47.8617 14.4107 47.3924 13.984C46.923 13.5573 46.283 13.344 45.4724 13.344H40.0324V19.84ZM71.4764 32.384C70.0044 32.384 68.671 32.1387 67.4764 31.648C66.2817 31.1573 65.2577 30.4213 64.4044 29.44C63.5724 28.4587 62.9217 27.2533 62.4524 25.824C61.983 24.3947 61.7484 22.7307 61.7484 20.832C61.7484 18.9547 61.983 17.3013 62.4524 15.872C62.9217 14.4213 63.5724 13.2053 64.4044 12.224C65.2577 11.2427 66.2817 10.5067 67.4764 10.016C68.671 9.52533 70.0044 9.28 71.4764 9.28C72.9484 9.28 74.2817 9.52533 75.4764 10.016C76.671 10.5067 77.695 11.2427 78.5484 12.224C79.4017 13.2053 80.0524 14.4213 80.5004 15.872C80.9697 17.3013 81.2044 18.9547 81.2044 20.832C81.2044 22.7307 80.9697 24.3947 80.5004 25.824C80.0524 27.2533 79.4017 28.4587 78.5484 29.44C77.695 30.4213 76.671 31.1573 75.4764 31.648C74.2817 32.1387 72.9484 32.384 71.4764 32.384ZM71.4764 28.64C73.0764 28.64 74.3457 28.1067 75.2844 27.04C76.2444 25.9733 76.7244 24.48 76.7244 22.56V19.104C76.7244 17.184 76.2444 15.6907 75.2844 14.624C74.3457 13.5573 73.0764 13.024 71.4764 13.024C69.8764 13.024 68.5964 13.5573 67.6364 14.624C66.6977 15.6907 66.2284 17.184 66.2284 19.104V22.56C66.2284 24.48 66.6977 25.9733 67.6364 27.04C68.5964 28.1067 69.8764 28.64 71.4764 28.64ZM98.7399 32.384C96.8199 32.384 95.1879 32.0427 93.8439 31.36C92.5212 30.6773 91.3799 29.7813 90.4199 28.672L93.2679 25.92C94.0359 26.816 94.8892 27.4987 95.8279 27.968C96.7879 28.4373 97.8439 28.672 98.9959 28.672C100.297 28.672 101.279 28.3947 101.94 27.84C102.601 27.264 102.932 26.496 102.932 25.536C102.932 24.7893 102.719 24.1813 102.292 23.712C101.865 23.2427 101.065 22.9013 99.8919 22.688L97.7799 22.368C93.3212 21.664 91.0919 19.4987 91.0919 15.872C91.0919 14.8693 91.2732 13.9627 91.6359 13.152C92.0199 12.3413 92.5639 11.648 93.2679 11.072C93.9719 10.496 94.8145 10.0587 95.7959 9.76C96.7985 9.44 97.9292 9.28 99.1879 9.28C100.873 9.28 102.345 9.55733 103.604 10.112C104.863 10.6667 105.94 11.488 106.836 12.576L103.956 15.296C103.401 14.6133 102.729 14.0587 101.94 13.632C101.151 13.2053 100.159 12.992 98.9639 12.992C97.7479 12.992 96.8305 13.2267 96.2119 13.696C95.6145 14.144 95.3159 14.784 95.3159 15.616C95.3159 16.4693 95.5612 17.0987 96.0519 17.504C96.5425 17.9093 97.3319 18.208 98.4199 18.4L100.5 18.784C102.761 19.1893 104.425 19.9147 105.492 20.96C106.58 21.984 107.124 23.424 107.124 25.28C107.124 26.3467 106.932 27.3173 106.548 28.192C106.185 29.0453 105.641 29.792 104.916 30.432C104.212 31.0507 103.337 31.5307 102.292 31.872C101.268 32.2133 100.084 32.384 98.7399 32.384ZM125.901 13.408V32H121.677V13.408H115.341V9.664H132.237V13.408H125.901ZM147.565 32V23.232L139.917 9.664H144.653L149.805 19.104H149.869L154.893 9.664H159.501L151.821 23.2V32H147.565Z" fill="black"/>
</svg>
