<svg width="46" height="46" viewBox="0 0 46 46" fill="none" xmlns="http://www.w3.org/2000/svg">
<path d="M12.0436 9.01096L8.28 5.25114L5.33182 8.21279L9.07455 11.9726L12.0436 9.01096ZM6.27273 20.8995H0V25.1005H6.27273V20.8995ZM25.0909 0H20.9091V6.19635H25.0909V0ZM40.6682 8.21279L37.72 5.25114L33.9773 9.01096L36.9255 11.9726L40.6682 8.21279ZM33.9564 36.989L37.6991 40.7699L40.6473 37.8082L36.8836 34.0484L33.9564 36.989ZM39.7273 20.8995V25.1005H46V20.8995H39.7273ZM23 10.3973C16.0791 10.3973 10.4545 16.0475 10.4545 23C10.4545 29.9525 16.0791 35.6027 23 35.6027C29.9209 35.6027 35.5455 29.9525 35.5455 23C35.5455 16.0475 29.9209 10.3973 23 10.3973ZM20.9091 46H25.0909V39.8037H20.9091V46ZM5.33182 37.7872L8.28 40.7489L12.0227 36.968L9.07455 34.0064L5.33182 37.7872Z" fill="white"/>
</svg>
